<?xml version="1.0" encoding="utf-8"?><!-- Uploaded to: SVG Repo, www.svgrepo.com, Generator: SVG Repo Mixer Tools -->
<svg width="800px" height="800px" viewBox="0 0 24 24" id="_003_ECOMMERCE_03" data-name="003_ECOMMERCE_03" xmlns="http://www.w3.org/2000/svg"><title>003_083</title><path d="M20,21H4a1,1,0,0,1,0-2H19V5H5V16a1,1,0,0,1-2,0V4A.99974.99974,0,0,1,4,3H20a.99974.99974,0,0,1,1,1V20A.99974.99974,0,0,1,20,21Z" style="fill:#333"/><path d="M16,9H8A1,1,0,0,1,8,7h8a1,1,0,0,1,0,2Z" style="fill:#333"/><path d="M16,13H8a1,1,0,0,1,0-2h8a1,1,0,0,1,0,2Z" style="fill:#333"/><path d="M16,17H8a1,1,0,0,1,0-2h8a1,1,0,0,1,0,2Z" style="fill:#333"/></svg>